<?xml version="1.0"?>
<svg xmlns="http://www.w3.org/2000/svg" id="Line_cutting_stroke_Ex" data-name="Line cutting stroke Ex" width="512" height="512" viewBox="0 0 512 512"><g><path d="M396.1616,63.2266l18.7647,10.2627L425.189,92.2549a8.0005,8.0005,0,0,0,14.0381,0L449.49,73.4893l18.7647-10.2627a7.9994,7.9994,0,0,0,.0005-14.0371L449.49,38.9258,439.2271,20.1611a8.0005,8.0005,0,0,0-14.0381,0L414.9263,38.9258,396.1611,49.19a7.9994,7.9994,0,0,0,.0005,14.0371ZM424.66,51.8389a8.005,8.005,0,0,0,3.18-3.18l4.3682-7.9873,4.3682,7.9873a8.0057,8.0057,0,0,0,3.18,3.18l7.9874,4.3691-7.9869,4.3682a7.9974,7.9974,0,0,0-3.1806,3.18l-4.3682,7.9873L427.84,63.7559a7.9968,7.9968,0,0,0-3.1806-3.18l-7.9868-4.3682Z"/><path d="M19.7456,207.2266,38.51,217.4893l10.2626,18.7656a8.0005,8.0005,0,0,0,14.0381,0l10.2627-18.7656,18.7647-10.2627a7.9994,7.9994,0,0,0,.0005-14.0371L73.0737,182.9258,62.811,164.1611a8.0005,8.0005,0,0,0-14.0381,0L38.51,182.9258,19.7451,193.19a7.9994,7.9994,0,0,0,0,14.0371Zm28.4981-11.3877a8.0057,8.0057,0,0,0,3.18-3.18l4.3682-7.9873,4.3682,7.9873a8.005,8.005,0,0,0,3.18,3.18l7.9873,4.3691-7.9868,4.3682a7.9968,7.9968,0,0,0-3.1806,3.18l-4.3682,7.9873-4.3682-7.9873a7.9974,7.9974,0,0,0-3.1806-3.18l-7.9869-4.3682Z"/><path d="M495.1958,484.5039,451.439,394.4424l-9.6519-28.9707-15.18,5.0566,9.8174,29.4678a8.0242,8.0242,0,0,0,.394.9678L480,489.8408V496h16v-8A8.0027,8.0027,0,0,0,495.1958,484.5039Z"/><path d="M407.8433,410.9932a8.0042,8.0042,0,0,0-3.9-4.6514l-32.68-17.1738-38.7647-54.1162a11.9865,11.9865,0,0,1,11.1079.0517l27.2754,14.3926a8,8,0,0,0,11.208-9.9268L345.5811,243.873q-.0748-.1962-.16-.3876a12.04,12.04,0,0,1,3.8838-14.56l48.4165,64.7812c.0405.0537.0815.1075.123.16a51.8048,51.8048,0,0,1,8.8252,16.81c.0171.0557.0347.11.0533.1651l14.5542,43.6855,15.18-5.0566-14.5273-43.6055A67.7428,67.7428,0,0,0,410.4785,284.05l-52.1426-69.7666a8,8,0,0,0-8.769-2.8545l-1.4439.4453A28.0012,28.0012,0,0,0,330.7,249.7559l28.8735,75.6826-8.5-4.4854a27.9614,27.9614,0,0,0-32.4287,4.5362l-2.5093,2.4023a7.9988,7.9988,0,0,0-.9711,10.4365L359.36,400.0264a7.9971,7.9971,0,0,0,2.7817,2.4238L393.5957,418.98,416,489.2441V496h16v-8a8.0037,8.0037,0,0,0-.3779-2.4307Z"/><path d="M152.64,400.0264l44.1958-61.6983a7.9988,7.9988,0,0,0-.9711-10.4365l-2.51-2.4033a27.9626,27.9626,0,0,0-32.4277-4.5352l-8.5,4.4854,28.873-75.6826A28,28,0,0,0,163.875,211.874l-1.4419-.4453a7.9983,7.9983,0,0,0-8.769,2.8545l-52.1436,69.7676a67.7535,67.7535,0,0,0-11.45,21.8154L60.56,394.4453l-43.7579,90.207A7.9976,7.9976,0,0,0,16,488.1436V496H32v-6.0186L75.1831,400.959a8.0023,8.0023,0,0,0,.3921-.9629l29.7021-89.1533c.0186-.0547.0362-.1094.0533-.1651a51.8048,51.8048,0,0,1,8.8252-16.81c.042-.0527.0825-.1065.123-.16l48.4165-64.7812a12.04,12.04,0,0,1,3.8838,14.56q-.0849.1919-.16.3876L129.91,339.5693a8,8,0,0,0,11.208,9.9268l27.2758-14.3926a11.9856,11.9856,0,0,1,11.1075-.0517L140.7368,389.168l-32.68,17.1738a8.0042,8.0042,0,0,0-3.9,4.6514L80.3779,485.5693A8.0037,8.0037,0,0,0,80,488v8H96v-6.7559L118.4043,418.98,149.8579,402.45A7.9971,7.9971,0,0,0,152.64,400.0264Z"/><path d="M304.2861,418.123a8.0006,8.0006,0,0,0,6.1451,5.7237l72,14.4,3.1376-15.69-67.163-13.4326-10.7217-38.989q.576-.4673,1.1516-.9439A47.4415,47.4415,0,0,0,320,370.5117v-16c-17.9438,0-32-15.1553-32-34.5029a35.0318,35.0318,0,0,1,10.1279-24.8867,8,8,0,0,0,.8076-10.3252,35.2841,35.2841,0,0,1-6.665-20.8194c0-13.7871,7.8081-26.2255,19.8926-31.69a7.9991,7.9991,0,0,0,3.0791-12.1221A15.852,15.852,0,0,1,312,210.5117a15.9976,15.9976,0,0,1,24.4277-13.5986,8.0074,8.0074,0,0,0,8.4859-.0215A31.6511,31.6511,0,0,1,361.7866,192c18.1372,0,32.8931,15.4775,32.8931,34.5029a35.7033,35.7033,0,0,1-4.5776,17.5576l13.9257,7.879a51.8639,51.8639,0,0,0-1.8891-53.9244A83.5853,83.5853,0,0,0,378.7944,88.8672l-2.33-1.6943q-8.0979-5.8894-16.6323-10.9224c-1.477-16.4668-12.6794-31.5357-31.9194-42.7583C308.5767,22.2119,283.0371,16,256,16s-52.5767,6.2119-71.9131,17.4922c-19.24,11.2226-30.4424,26.2912-31.9194,42.758q-8.5262,5.0307-16.6328,10.9227l-2.3282,1.6943a82.9273,82.9273,0,0,0-24.05,27.2744l14.0167,7.7168a67.0438,67.0438,0,0,1,19.4448-22.0518l2.3286-1.6943a188.8133,188.8133,0,0,1,222.1069,0l2.33,1.6943A67.5865,67.5865,0,0,1,390.5542,185.69a47.7776,47.7776,0,0,0-22.292-9.2476c-6.459-20.011-17.0063-36.1221-31.4033-47.9448-16.4258-13.4893-38.0117-21.4932-64.1587-23.791l-1.4,15.9394c41.3654,3.634,67.718,22.1357,80.2809,56.4651a47.702,47.702,0,0,0-11.0983,3.9343A32.0236,32.0236,0,0,0,298.09,221.9258,51.6365,51.6365,0,0,0,282.521,288.71,51.0788,51.0788,0,0,0,272,320.0088c0,17.4641,8.0183,32.5947,20.4779,41.6282C279.5955,370.9636,266.9158,376,256,376s-23.5959-5.0361-36.4783-14.3628C231.9814,352.6038,240,337.4731,240,320.0088A51.0841,51.0841,0,0,0,229.479,288.71,51.6352,51.6352,0,0,0,213.91,221.9268a32.0115,32.0115,0,0,0-42.3921-40.8819,47.7083,47.7083,0,0,0-11.0855-3.9316c6.2383-16.918,15.9868-30.1658,29.06-39.459C205.9717,125.94,228.3481,120,256,120V104c-31.0405,0-56.5361,6.9355-75.7783,20.6133-17.0313,12.1069-29.2871,29.5254-36.4843,51.8288a47.7787,47.7787,0,0,0-22.2918,9.2488,67.6318,67.6318,0,0,1-4.1316-47.5259l-15.4034-4.33a83.6266,83.6266,0,0,0,7.95,64.18,51.8663,51.8663,0,0,0-1.8891,53.9241l13.9258-7.879a35.7018,35.7018,0,0,1-4.5772-17.5576C117.32,207.4775,132.0762,192,150.2134,192a31.6511,31.6511,0,0,1,16.873,4.8916,8.0032,8.0032,0,0,0,8.4859.0215,15.9977,15.9977,0,0,1,21.186,23.251,8,8,0,0,0,3.0781,12.123c12.0845,5.4649,19.8931,17.9043,19.8931,31.69a35.2841,35.2841,0,0,1-6.665,20.8194,8.0005,8.0005,0,0,0,.8076,10.3252A35.0334,35.0334,0,0,1,224,320.0088c0,19.3476-14.0562,34.5029-32,34.5029v16a47.4474,47.4474,0,0,0,11.163-1.3193q.5761.4771,1.1527.9448L193.5942,409.125l-67.163,13.4326,3.1376,15.69,72-14.4a8.0006,8.0006,0,0,0,6.1451-5.7237L218.2,379.9917C231.19,387.897,244.0081,392,256,392s24.81-4.103,37.8-12.009ZM256,48a203.656,203.656,0,0,0-83.9963,17.96C183.3127,46.5369,217.2085,32,256,32s72.6875,14.5369,83.9963,33.96A203.6543,203.6543,0,0,0,256,48Z"/><path d="M304,440.752V440H288v.752a25.9182,25.9182,0,0,0,21.7256,25.6464l80.959,13.4932,2.6308-15.7832L312.356,450.6152A9.9679,9.9679,0,0,1,304,440.752Z"/><path d="M208,440.752a9.9679,9.9679,0,0,1-8.356,9.8632l-80.9594,13.4932,2.6308,15.7832,80.9585-13.4932A25.9182,25.9182,0,0,0,224,440.752V440H208Z"/></g></svg>
