<svg height="512" viewBox="0 0 512 512" width="512" xmlns="http://www.w3.org/2000/svg"><g id="Beauty_Eyelashes" data-name="Beauty Eyelashes"><g id="Outline"><path d="m387.588 334.78c-34.211 7.672-76.788 17.22-132.679 17.22-36.982 0-69.394-9.011-96.449-26.789a170.942 170.942 0 0 0 58.572 10.789c43 0 89.973-12.545 131.411-23.614 46.312-12.37 90.053-24.053 104.708-10.511a8 8 0 1 0 10.86-11.75c-21.129-19.523-64.626-7.906-119.7 6.8-40.484 10.818-86.373 23.075-127.279 23.075-46.116 0-85.552-22.878-110.513-42.071-27.457-21.111-44-42.57-44.158-42.78a8 8 0 1 0 -12.722 9.7c.711.932 17.747 23.1 46.764 45.483q6.39 4.929 12.884 9.335c.088.171.175.341.276.508.038.061.155.25.343.54l-6.023-1.385.034-.14c-.067.25-1.739 6.166-9.028 10.289-9.737 5.509-25.2 5.491-44.7-.051a8 8 0 0 0 -4.374 15.39q16.887 4.8 30.5 4.8c10.621 0 19.692-2.2 27.126-6.6a36 36 0 0 0 13.255-13.332c1.151 1.366 2.445 2.842 3.89 4.409a7.942 7.942 0 0 0 -.579 2.974c0 .133-.3 13.352-10.379 21.115-9.042 6.962-24.145 8.062-43.681 3.177a8 8 0 0 0 -3.88 15.522 106.669 106.669 0 0 0 25.689 3.508c12.915 0 23.575-3.237 31.849-9.7a43.014 43.014 0 0 0 14.894-23.378c2.82 2.362 5.886 4.767 9.225 7.172.123.089.254.18.379.269a8.008 8.008 0 0 0 -.016 2.371c.024.17 2.112 17.247-8.844 28.551-9.008 9.3-24.6 12.785-46.352 10.367a8 8 0 0 0 -1.768 15.9 129.414 129.414 0 0 0 14.258.831c19.842 0 35.061-5.347 45.352-15.965 10.034-10.352 12.8-23.212 13.39-31.953q3.987 2.208 8.4 4.349a7.987 7.987 0 0 0 -.439 3.888c.027.195 2.5 19.663-9.259 33.107-8.008 9.16-21.068 13.8-38.825 13.8a8 8 0 0 0 0 16q4.13 0 8.011-.293v.11c0 .141-.011.282-.006.422 0 .086.013.17.018.256.011.176.021.352.043.526.008.054.02.108.028.162.031.2.063.4.108.6.011.048.028.095.039.143.05.2.1.4.167.593.024.073.056.144.083.217.06.165.119.33.19.491.051.116.112.227.169.341s.108.228.169.338c.079.142.17.278.257.415.05.077.095.158.147.233.095.138.2.269.305.4.055.07.106.144.164.213.1.112.2.218.3.326.078.082.152.168.233.247s.176.157.264.235c.11.1.218.2.334.29.07.055.145.105.217.158.144.106.287.213.438.309.065.042.134.078.2.118.164.1.328.195.5.282.015.008.028.017.043.024l32 16q.211.107.427.2a66.755 66.755 0 0 0 20.769 5.457 7.982 7.982 0 0 0 6.383 3.187h16a96.28 96.28 0 0 0 12.538-.8 7.955 7.955 0 0 0 3.462.8h24c2.1 0 4.147-.08 6.153-.223a7.975 7.975 0 0 0 1.847.223h24c2.1 0 4.147-.08 6.153-.223a7.975 7.975 0 0 0 1.847.223h16c12.991 0 23.926-2.929 33.038-8.012 12.519-.128 23.111-3.048 31.98-8.053a82.524 82.524 0 0 0 35.782-15.535c15.325-11.494 33.445-33.641 35.069-74.431 11.236-.335 20.057 1.767 26.7 7.906a8 8 0 1 0 10.86-11.75c-20.459-18.906-49.563-12.378-89.841-3.345zm-237.2 76.1a51.838 51.838 0 0 0 20.6-14.291c12.331-14.218 13.543-32.08 13.3-40.676 4.9 1.811 10.1 3.487 15.6 4.984a7.962 7.962 0 0 0 -.084 1.1c0 13.256-4.688 32.271-17.9 42.237-8.112 6.128-18.687 8.339-31.512 6.65zm55.245 13.342c-8.838 5.828-19.343 6.292-32.042 1.409a50.468 50.468 0 0 0 17.951-8.624c17.061-12.869 23.644-35.08 24.218-52.5 5.031.927 10.264 1.7 15.718 2.275-1.52 17.328-8.589 46.068-25.841 57.444zm48.437-14.45c-6.9 11.321-17.223 18.23-31.324 20.922 17.168-17.4 23.218-46.068 24.675-62.832 2.461.08 4.947.134 7.484.134 3.01 0 5.972-.033 8.906-.084v.084c0 11.775-1.69 28.579-9.737 41.78zm2.521 21.7c15.088-13.572 23.22-35.151 23.22-63.472 0-.208-.016-.413-.032-.617q8.293-.411 16.172-1.062c-.507 30.449-5.517 60.852-39.351 65.155zm36.464-.745a58.343 58.343 0 0 0 11.318-17.7c6.8-16.212 7.533-34.645 7.612-48.294q8.231-.942 16-2.081c-.177 30.248-3.844 61.483-34.926 68.079zm35.973-4.726a60.979 60.979 0 0 0 7.345-12.971c7.611-18.13 7.627-39.054 7.627-52.938q8.142-1.422 15.772-2.957c-.399 16.821-4.372 54.271-30.74 68.87zm30.131-7.051c11.763-17.926 16.648-41.841 16.648-64.954 0-.073-.009-.144-.011-.217 5.273-1.146 10.369-2.288 15.289-3.391l.773-.173c-.817 18.869-5.977 55.39-32.695 68.739zm36.041-15.273c8.607-16.606 12.463-37 12.777-57 5.615-1.186 10.875-2.213 15.8-3.007-1.861 31.966-15.253 49.959-28.577 60.007z"/><path d="m492.319 117.16-299.309-53.04a8.7 8.7 0 0 0 -2.1-.09l-39.471 3.47a8 8 0 0 0 -7.269 8.67 7.911 7.911 0 0 0 2.58 5.21 8 8 0 0 0 6.09 2.06l38.42-3.38 298.27 52.85a7.967 7.967 0 0 1 6.61 7.86 8.924 8.924 0 0 1 -.13 1.42v.01a22.811 22.811 0 0 1 -9.14 13.98 29.021 29.021 0 0 1 -17.04 5.78h-.07a25.744 25.744 0 0 1 -4.25-.36l-272.45-57.43a7.576 7.576 0 0 0 -1.65-.17h-146.91c-8.271 0-15.17-1.43-19.431-4.02a13.65 13.65 0 0 1 -4.869-4.69c-.04-.06-.07-.12-.11-.19l68.99-6.06a8 8 0 0 0 -1.4-15.94l-78.41 6.89a7.986 7.986 0 0 0 -7.3 7.97l.009.56a32.928 32.928 0 0 0 4.551 15.08c4.539 7.52 11.64 11.3 16.789 13.15 6.04 2.17 13.061 3.24 21.481 3.25h145.769l271.781 57.28.24.05a41.47 41.47 0 0 0 7.17.63 45.16 45.16 0 0 0 26.69-8.97 38.635 38.635 0 0 0 15.31-23.97v-.03a24 24 0 0 0 -19.441-27.83z"/><path d="m114.87 84.18a7.965 7.965 0 0 0 5.38 2.09c.229 0 .47-.01.71-.03a8.005 8.005 0 1 0 -6.09-2.06z"/></g></g></svg>